# xmcd
#
# Track frame offsets:
#	150
#	17232
#	35473
#	52973
#	75191
#	89854
#	107579
#	124591
#	138814
#	155887
#	169889
#	189178
#	203834
#	218471
#	241193
#	265405
#	286279
#
# Disc length: 4287 seconds
# Revision: 0
# Processed by: cddbd v1.5.2PL0 Copyright (c) Steve Scherf et al.
# Submitted via: dBpowerAMP V12.0
#
DISCID=e210bd11
DTITLE=The Blackeyed Susans - Reveal Yourself
DYEAR=1900
DGENRE=Indie Folk
TTITLE0=Smokin Johnny Cash
TTITLE1=Blue Skies, Blue Sea
TTITLE2=I Am A Singer
TTITLE3=Bottle Of Red
TTITLE4=You're A Good Doctor
TTITLE5=Come Ride With Me
TTITLE6=To Skin A Man
TTITLE7=No Direction Home
TTITLE8=Take Care
TTITLE9=The End Of The World
TTITLE10=Plastic Jesus
TTITLE11=If I Can Dream
TTITLE12=A Cat Needs A Mouse
TTITLE13=End Of Time
TTITLE14=Deliver Me
TTITLE15=Lost Horizon
TTITLE16=Endless Night
EXTD=
EXTT0=
EXTT1=
EXTT2=
EXTT3=
EXTT4=
EXTT5=
EXTT6=
EXTT7=
EXTT8=
EXTT9=
EXTT10=
EXTT11=
EXTT12=
EXTT13=
EXTT14=
EXTT15=
EXTT16=
PLAYORDER=
